<?xml version="1.0" encoding="UTF-8"?>
<svg xmlns="http://www.w3.org/2000/svg"
     xmlns:xlink="http://www.w3.org/1999/xlink"
     xmlns:gadfly="http://www.gadflyjl.org/ns"
     version="1.2"
     width="152.4mm" height="127mm" viewBox="0 0 152.4 127"
     stroke="none"
     fill="#000000"
     stroke-width="0.3"
     font-size="3.88"
>
<g class="plotroot xscalable yscalable" id="fig-eb768f4d449a402fa70f9c28d70ba8ac-element-1">
  <g font-size="3.88" font-family="'PT Sans','Helvetica Neue','Helvetica',sans-serif" fill="#564A55" stroke="none" id="fig-eb768f4d449a402fa70f9c28d70ba8ac-element-2">
    <text x="83.02" y="119" text-anchor="middle">Years of completed education</text>
  </g>
  <g class="guide xlabels" font-size="2.82" font-family="'PT Sans Caption','Helvetica Neue','Helvetica',sans-serif" fill="#6C606B" id="fig-eb768f4d449a402fa70f9c28d70ba8ac-element-3">
    <text x="20.63" y="111.39" text-anchor="middle">0</text>
    <text x="51.82" y="111.39" text-anchor="middle">5</text>
    <text x="83.02" y="111.39" text-anchor="middle">10</text>
    <text x="114.21" y="111.39" text-anchor="middle">15</text>
    <text x="145.4" y="111.39" text-anchor="middle">20</text>
  </g>
  <g clip-path="url(#fig-eb768f4d449a402fa70f9c28d70ba8ac-element-5)" id="fig-eb768f4d449a402fa70f9c28d70ba8ac-element-4">
    <g pointer-events="visible" opacity="1" fill="none" stroke="none" class="guide background" id="fig-eb768f4d449a402fa70f9c28d70ba8ac-element-6">
      <rect x="18.63" y="5" width="128.77" height="102.72"/>
    </g>
    <g class="guide ygridlines xfixed" stroke-dasharray="0.5,0.5" stroke-width="0.2" stroke="#D0D0E0" id="fig-eb768f4d449a402fa70f9c28d70ba8ac-element-7">
      <path fill="none" d="M18.63,105.72 L 147.4 105.72"/>
      <path fill="none" d="M18.63,81.04 L 147.4 81.04"/>
      <path fill="none" d="M18.63,56.36 L 147.4 56.36"/>
      <path fill="none" d="M18.63,31.68 L 147.4 31.68"/>
      <path fill="none" d="M18.63,7 L 147.4 7"/>
    </g>
    <g class="guide xgridlines yfixed" stroke-dasharray="0.5,0.5" stroke-width="0.2" stroke="#D0D0E0" id="fig-eb768f4d449a402fa70f9c28d70ba8ac-element-8">
      <path fill="none" d="M20.63,5 L 20.63 107.72"/>
      <path fill="none" d="M51.82,5 L 51.82 107.72"/>
      <path fill="none" d="M83.02,5 L 83.02 107.72"/>
      <path fill="none" d="M114.21,5 L 114.21 107.72"/>
      <path fill="none" d="M145.4,5 L 145.4 107.72"/>
    </g>
    <g class="plotpanel" id="fig-eb768f4d449a402fa70f9c28d70ba8ac-element-9">
      <g stroke-width="0.3" fill="none" class="geometry" stroke="#00BFFF" id="fig-eb768f4d449a402fa70f9c28d70ba8ac-element-10">
        <path fill="none" d="M20.63,79.95 L 26.87 77.87 33.11 72.81 39.35 72.5 45.59 67.98 51.82 64.71 58.06 61.1 64.3 57.83 70.54 52.78 76.78 49.14 83.02 47.21 89.25 44.92 95.49 39.36 101.73 35.77 107.97 33.51 114.21 31.31 120.45 20.23 126.68 20.35 132.92 18.45 139.16 21.24 145.4 16.33"/>
      </g>
      <g stroke-width="0.3" fill="none" class="geometry" stroke="#008000" id="fig-eb768f4d449a402fa70f9c28d70ba8ac-element-11">
        <path fill="none" d="M20.63,81.27 L 26.87 77.78 33.11 74.28 39.35 70.78 45.59 67.29 51.82 63.79 58.06 60.29 64.3 56.79 70.54 53.3 76.78 49.8 83.02 46.3 89.25 42.81 95.49 39.31 101.73 35.81 107.97 32.32 114.21 28.82 120.45 25.32 126.68 21.82 132.92 18.33 139.16 14.83 145.4 11.33"/>
      </g>
      <g class="geometry" id="fig-eb768f4d449a402fa70f9c28d70ba8ac-element-12">
        <g class="color_RGB{Float32}(0.0f0,0.74736935f0,1.0f0)" stroke="#FFFFFF" stroke-width="0.3" fill="#00BFFF" id="fig-eb768f4d449a402fa70f9c28d70ba8ac-element-13">
          <circle cx="20.63" cy="79.95" r="0.9"/>
          <circle cx="26.87" cy="77.87" r="0.9"/>
          <circle cx="33.11" cy="72.81" r="0.9"/>
          <circle cx="39.35" cy="72.5" r="0.9"/>
          <circle cx="45.59" cy="67.98" r="0.9"/>
          <circle cx="51.82" cy="64.71" r="0.9"/>
          <circle cx="58.06" cy="61.1" r="0.9"/>
          <circle cx="64.3" cy="57.83" r="0.9"/>
          <circle cx="70.54" cy="52.78" r="0.9"/>
          <circle cx="76.78" cy="49.14" r="0.9"/>
          <circle cx="83.02" cy="47.21" r="0.9"/>
          <circle cx="89.25" cy="44.92" r="0.9"/>
          <circle cx="95.49" cy="39.36" r="0.9"/>
          <circle cx="101.73" cy="35.77" r="0.9"/>
          <circle cx="107.97" cy="33.51" r="0.9"/>
          <circle cx="114.21" cy="31.31" r="0.9"/>
          <circle cx="120.45" cy="20.23" r="0.9"/>
          <circle cx="126.68" cy="20.35" r="0.9"/>
          <circle cx="132.92" cy="18.45" r="0.9"/>
          <circle cx="139.16" cy="21.24" r="0.9"/>
          <circle cx="145.4" cy="16.33" r="0.9"/>
        </g>
      </g>
    </g>
  </g>
  <g class="guide ylabels" font-size="2.82" font-family="'PT Sans Caption','Helvetica Neue','Helvetica',sans-serif" fill="#6C606B" id="fig-eb768f4d449a402fa70f9c28d70ba8ac-element-14">
    <text x="17.63" y="105.72" text-anchor="end" dy="0.35em">4.5</text>
    <text x="17.63" y="81.04" text-anchor="end" dy="0.35em">5.0</text>
    <text x="17.63" y="56.36" text-anchor="end" dy="0.35em">5.5</text>
    <text x="17.63" y="31.68" text-anchor="end" dy="0.35em">6.0</text>
    <text x="17.63" y="7" text-anchor="end" dy="0.35em">6.5</text>
  </g>
  <g font-size="3.88" font-family="'PT Sans','Helvetica Neue','Helvetica',sans-serif" fill="#564A55" stroke="none" id="fig-eb768f4d449a402fa70f9c28d70ba8ac-element-15">
    <text x="8.81" y="54.36" text-anchor="middle" dy="0.35em" transform="rotate(-90, 8.81, 56.36)">Log weekly earnings, $2003</text>
  </g>
</g>
<defs>
<clipPath id="fig-eb768f4d449a402fa70f9c28d70ba8ac-element-5">
  <path d="M18.63,5 L 147.4 5 147.4 107.72 18.63 107.72" />
</clipPath
></defs>
</svg>
